<?xml version="1.0" standalone="no"?>
<!DOCTYPE svg PUBLIC "-//W3C//DTD SVG 1.1//EN" "http://www.w3.org/Graphics/SVG/1.1/DTD/svg11.dtd" >
<svg>
<metadata>
Created by FontForge 20090914 at Mon Feb 25 22:59:24 2013
 By www-data
Copyright Eris  2013
</metadata>
<defs>
<font id="Rizcraft-16x" horiz-adv-x="768" >
  <font-face 
    font-family="Rizcraft 16x"
    font-weight="400"
    font-stretch="normal"
    units-per-em="1024"
    panose-1="0 0 4 0 0 0 0 0 0 0"
    ascent="768"
    descent="-256"
    x-height="640"
    cap-height="768"
    bbox="-128 -256 1024 768"
    underline-thickness="51"
    underline-position="126"
    unicode-range="U+0020-U+2122"
  />
<missing-glyph horiz-adv-x="384" 
d="M384 109v122h-123v-122h123zM506 251v123h-245v-123h245zM384 393v123h-123v-123h123zM506 536v122h-122c-34 0 -63 -12 -87 -36s-36 -52.667 -36 -86h245zM0 0v768h768v-768h-768z" />
    <glyph glyph-name=".notdef" horiz-adv-x="384" 
d="M384 109v122h-123v-122h123zM506 251v123h-245v-123h245zM384 393v123h-123v-123h123zM506 536v122h-122c-34 0 -63 -12 -87 -36s-36 -52.667 -36 -86h245zM0 0v768h768v-768h-768z" />
    <glyph glyph-name="space" unicode=" " horiz-adv-x="256" 
 />
    <glyph glyph-name="exclam" unicode="!" horiz-adv-x="256" 
d="M0 0v128h128v-128h-128zM0 256v512h128v-448h-64v-64h-64z" />
    <glyph glyph-name="quotedbl" unicode="&#x22;" horiz-adv-x="448" 
d="M0 512v256h128v-192h-64v-64h-64zM192 512v256h128v-192h-64v-64h-64z" />
    <glyph glyph-name="numbersign" unicode="#" 
d="M384 256v128h-128v-128h128zM128 -128v256h-128v128h128v128h-128v128h128v256h128v-256h128v256h128v-256h128v-128h-128v-128h128v-128h-128v-256h-128v256h-128v-256h-128z" />
    <glyph glyph-name="dollar" unicode="$" 
d="M448 128v64h64v128h-64v64h-64v-256h64zM256 512v128h-128v-128h128zM576 576v64h64v-64h-64zM128 0v64h-64v64h-64v128h64v-64h64v-64h128v256h-128v64h-64v64h-64v128h64v64h64v64h384v-64h64v-64h-192v-128h128v-64h64v-64h64v-256h-64v-64h-64v-64h-384z" />
    <glyph glyph-name="percent" unicode="%" horiz-adv-x="1024" 
d="M640 -64v64h128v-64h-128zM576 0v128h64v-128h-64zM768 0v128h64v-128h-64zM640 128v64h128v-64h-128zM128 448v64h128v-64h-128zM64 512v128h64v-128h-64zM256 512v128h64v-128h-64zM128 640v64h128v-64h-128zM64 -128v64h-64v64h64v64h64v64h64v64h64v64h64v64h64v64
h64v64h64v64h64v64h64v64h64v64h64v64h64v-64h64v-64h-64v-64h-64v-64h-64v-64h-64v-64h-64v-64h-64v-64h-64v-64h-64v-64h-64v-64h-64v-64h-64v-64h-64v-64h-64z" />
    <glyph glyph-name="ampersand" unicode="&#x26;" horiz-adv-x="896" 
d="M128 0v64h256v64h128v-64h-64v-64h-320zM64 64v64h-64v192h64v64h64v-320h-64zM640 192v128h64v64h64v-128h-64v-64h-64zM640 0v64h-64v64h-64v64h-64v64h-64v64h-128v64h-128v64h-64v64h-64v128h64v64h64v-192h64v-64h192v-64h64v-64h64v-64h64v-64h64v-64h64v-64h64
v-64h-128zM384 448v256h64v-64h64v-128h-64v-64h-64zM128 704v64h256v-64h-256z" />
    <glyph glyph-name="quotesingle" unicode="'" horiz-adv-x="256" 
d="M0 512v256h128v-192h-64v-64h-64z" />
    <glyph glyph-name="parenleft" unicode="(" horiz-adv-x="576" 
d="M320 -128v64h-128v64h-64v64h-64v128h-64v256h64v128h64v64h64v64h128v64h128v-128h-64v-64h-64v-64h-64v-384h64v-64h64v-64h64v-128h-128z" />
    <glyph glyph-name="parenright" unicode=")" horiz-adv-x="576" 
d="M0 -128v128h64v64h64v64h64v384h-64v64h-64v64h-64v128h128v-64h128v-64h64v-64h64v-128h64v-256h-64v-128h-64v-64h-64v-64h-128v-64h-128z" />
    <glyph glyph-name="asterisk" unicode="*" horiz-adv-x="640" 
d="M64 320v64h64v-64h-64zM192 256v128h128v-128h-128zM384 320v64h64v-64h-64zM128 384v64h64v-64h-64zM320 384v64h64v-64h-64zM0 448v128h128v-128h-128zM192 448v128h128v-128h-128zM384 448v128h128v-128h-128zM128 576v64h64v-64h-64zM320 576v64h64v-64h-64zM64 640
v64h64v-64h-64zM384 640v64h64v-64h-64zM192 640v128h128v-128h-128z" />
    <glyph glyph-name="plus" unicode="+" horiz-adv-x="512" 
d="M128 128v128h-128v128h128v128h128v-128h128v-128h-128v-128h-128z" />
    <glyph glyph-name="comma" unicode="," horiz-adv-x="256" 
d="M0 -128v64h64v-64h-64zM64 -64v64h-64v128h128v-192h-64z" />
    <glyph glyph-name="hyphen" unicode="-" horiz-adv-x="512" 
d="M0 256v128h384v-128h-384z" />
    <glyph glyph-name="period" unicode="." horiz-adv-x="256" 
d="M0 0v128h128v-128h-128z" />
    <glyph glyph-name="slash" unicode="/" horiz-adv-x="1024" 
d="M64 -128v64h-64v64h64v64h64v64h64v64h64v64h64v64h64v64h64v64h64v64h64v64h64v64h64v64h64v64h64v-64h64v-64h-64v-64h-64v-64h-64v-64h-64v-64h-64v-64h-64v-64h-64v-64h-64v-64h-64v-64h-64v-64h-64v-64h-64v-64h-64z" />
    <glyph glyph-name="zero" unicode="0" horiz-adv-x="640" 
d="M256 256v64h-64v192h64v-64h64v-192h-64zM320 128v64h64v384h-64v64h-128v-64h-64v-384h64v-64h128zM128 0v64h-64v64h-64v512h64v64h64v64h256v-64h64v-64h64v-512h-64v-64h-64v-64h-256z" />
    <glyph glyph-name="one" unicode="1" horiz-adv-x="512" 
d="M0 0v64h64v64h64v384h-128v64h64v64h64v64h128v-576h64v-64h64v-64h-384z" />
    <glyph glyph-name="two" unicode="2" horiz-adv-x="640" 
d="M0 0v256h64v64h64v64h192v64h64v128h-64v64h-192v-64h-64v-64h-64v128h64v64h64v64h256v-64h64v-64h64v-256h-64v-64h-64v-64h-192v-64h-64v-64h320v64h64v-192h-512z" />
    <glyph glyph-name="three" unicode="3" horiz-adv-x="640" 
d="M128 0v64h-64v64h-64v128h64v-64h64v-64h192v64h64v128h-64v64h-256v64h64v64h64v64h64v64h-192v-64h-64v192h512v-64h-64v-64h-64v-64h-64v-64h-64v-64h192v-64h64v-256h-64v-64h-64v-64h-256z" />
    <glyph glyph-name="four" unicode="4" 
d="M384 0v256h-384v512h192v-64h-64v-320h256v384h128v-384h128v-64h-64v-64h-64v-256h-128z" />
    <glyph glyph-name="five" unicode="5" horiz-adv-x="640" 
d="M128 0v64h-64v64h-64v128h64v-64h64v-64h192v64h64v128h-64v64h-256v-64h-64v448h512v-192h-64v64h-320v-128h256v-64h64v-64h64v-256h-64v-64h-64v-64h-256z" />
    <glyph glyph-name="six" unicode="6" horiz-adv-x="640" 
d="M320 128v64h64v128h-64v64h-128v-64h-64v-128h64v-64h128zM128 0v64h-64v64h-64v512h64v64h64v64h256v-64h64v-64h-256v-64h-64v-64h256v-64h64v-64h64v-256h-64v-64h-64v-64h-256z" />
    <glyph glyph-name="seven" unicode="7" 
d="M256 0v384h64v64h64v128h64v64h-384v-64h-64v192h640v-64h-64v-128h-64v-128h-64v-128h-64v-256h64v-64h-192z" />
    <glyph glyph-name="eight" unicode="8" horiz-adv-x="640" 
d="M320 128v64h64v64h-64v64h-128v-64h-64v-64h64v-64h128zM320 448v64h64v64h-64v64h-128v-64h-64v-64h64v-64h128zM128 0v64h-64v64h-64v192h64v128h-64v192h64v64h64v64h256v-64h64v-64h64v-192h-64v-128h64v-192h-64v-64h-64v-64h-256z" />
    <glyph glyph-name="nine" unicode="9" horiz-adv-x="640" 
d="M320 384v64h64v128h-64v64h-128v-64h-64v-128h64v-64h128zM128 0v64h-64v64h256v64h64v64h-256v64h-64v64h-64v256h64v64h64v64h256v-64h64v-64h64v-512h-64v-64h-64v-64h-256z" />
    <glyph glyph-name="colon" unicode=":" horiz-adv-x="256" 
d="M0 0v128h128v-128h-128zM0 256v128h128v-128h-128z" />
    <glyph glyph-name="semicolon" unicode=";" horiz-adv-x="256" 
d="M0 -128v64h64v-64h-64zM64 -64v64h-64v128h128v-192h-64zM0 256v128h128v-128h-128z" />
    <glyph glyph-name="less" unicode="&#x3c;" horiz-adv-x="704" 
d="M320 -64v64h-64v64h-64v64h-64v64h-64v64h-64v64h64v64h64v64h64v64h64v64h64v64h256v-64h-64v-64h-64v-64h-64v-64h-64v-64h-64v-64h64v-64h64v-64h64v-64h64v-64h64v-64h-256z" />
    <glyph glyph-name="equal" unicode="=" horiz-adv-x="512" 
d="M0 128v128h384v-128h-384zM0 384v128h384v-128h-384z" />
    <glyph glyph-name="greater" unicode="&#x3e;" horiz-adv-x="704" 
d="M0 -64v64h64v64h64v64h64v64h64v64h64v64h-64v64h-64v64h-64v64h-64v64h-64v64h256v-64h64v-64h64v-64h64v-64h64v-64h64v-64h-64v-64h-64v-64h-64v-64h-64v-64h-64v-64h-256z" />
    <glyph glyph-name="question" unicode="?" 
d="M256 0v128h128v-128h-128zM256 192v192h192v64h64v128h-64v64h-320v-64h-64v-64h-64v128h64v64h64v64h384v-64h64v-64h64v-256h-64v-64h-64v-64h-192v-64h-64z" />
    <glyph glyph-name="at" unicode="@" horiz-adv-x="1152" 
d="M576 64v320h-128v-64h-64v-192h64v-64h128zM320 -256v64h-128v64h-64v64h-64v128h-64v384h64v128h64v64h64v64h128v64h384v-64h128v-64h64v-64h64v-128h64v-320h-64v-64h-64v-64h-512v64h-64v64h-64v192h64v64h64v64h320v-320h128v64h64v192h-64v128h-64v64h-128v64h-256
v-64h-128v-64h-64v-128h-64v-256h64v-128h64v-64h128v-64h448v-64h-64v-64h-448z" />
    <glyph glyph-name="A" unicode="A" 
d="M512 384v192h-64v64h-256v-64h-64v-192h384zM0 0v640h64v64h64v64h384v-64h64v-64h64v-640h-128v256h-384v-256h-128z" />
    <glyph glyph-name="B" unicode="B" 
d="M448 128v64h64v128h-64v64h-192v-256h192zM448 448v64h64v64h-64v64h-192v-192h192zM0 0v64h64v64h64v512h-64v64h-64v64h512v-64h64v-64h64v-128h-64v-64h-64v-64h64v-64h64v-192h-64v-64h-64v-64h-512z" />
    <glyph glyph-name="C" unicode="C" 
d="M128 0v64h-64v64h-64v512h64v64h64v64h384v-64h64v-64h64v-128h-128v64h-64v64h-256v-64h-64v-384h64v-64h256v64h64v64h128v-128h-64v-64h-64v-64h-384z" />
    <glyph glyph-name="D" unicode="D" 
d="M384 128v64h64v64h64v256h-64v64h-64v64h-128v-512h128zM0 0v64h64v64h64v512h-64v64h-64v64h384v-64h128v-64h64v-128h64v-256h-64v-128h-64v-64h-128v-64h-384z" />
    <glyph glyph-name="E" unicode="E" 
d="M0 0v64h64v64h64v256h-128v64h128v192h-64v64h-64v64h640v-192h-64v64h-320v-192h128v-64h-128v-256h320v64h64v-192h-640z" />
    <glyph glyph-name="F" unicode="F" 
d="M0 0v64h64v64h64v256h-128v64h128v192h-64v64h-64v64h640v-192h-64v64h-320v-192h128v-64h-128v-384h-256z" />
    <glyph glyph-name="G" unicode="G" 
d="M128 0v64h-64v64h-64v512h64v64h64v64h384v-64h64v-64h64v-128h-128v64h-64v64h-256v-64h-64v-384h64v-64h256v64h64v128h-128v64h256v-256h-64v-64h-64v-64h-384z" />
    <glyph glyph-name="H" unicode="H" 
d="M0 0v768h128v-384h384v384h128v-768h-128v256h-384v-256h-128z" />
    <glyph glyph-name="I" unicode="I" horiz-adv-x="512" 
d="M0 0v64h64v64h64v512h-64v64h-64v64h384v-64h-64v-64h-64v-512h64v-64h64v-64h-384z" />
    <glyph glyph-name="J" unicode="J" 
d="M128 -128v64h-64v64h-64v256h64v64h64v64h128v-64h-64v-64h-64v-192h64v-64h128v64h64v576h-320v-64h-64v192h640v-64h-64v-64h-64v-640h-64v-64h-64v-64h-256z" />
    <glyph glyph-name="K" unicode="K" horiz-adv-x="832" 
d="M0 0v64h64v64h64v512h-64v64h-64v64h256v-384h192v64h64v192h192v-64h-64v-128h-64v-256h64v-128h64v-64h-192v192h-64v64h-192v-256h-256z" />
    <glyph glyph-name="L" unicode="L" 
d="M0 0v64h64v64h64v512h-64v64h-64v64h256v-640h256v64h64v64h64v-256h-640z" />
    <glyph glyph-name="M" unicode="M" horiz-adv-x="896" 
d="M0 0v64h64v64h64v512h-64v64h-64v64h192v-64h64v-64h64v-64h64v-64h128v64h64v64h64v64h64v64h128v-64h-64v-640h64v-64h-192v512h-64v-64h-64v-64h-128v64h-64v64h-64v-512h-256z" />
    <glyph glyph-name="N" unicode="N" 
d="M0 0v64h64v64h64v512h-64v64h-64v64h256v-64h64v-64h64v-64h64v-64h64v-64h64v320h128v-64h-64v-640h64v-64h-128v320h-64v64h-64v64h-64v64h-64v64h-64v-576h-256z" />
    <glyph glyph-name="O" unicode="O" 
d="M448 128v64h64v384h-64v64h-256v-64h-64v-384h64v-64h256zM128 0v64h-64v64h-64v512h64v64h64v64h384v-64h64v-64h64v-512h-64v-64h-64v-64h-384z" />
    <glyph glyph-name="P" unicode="P" 
d="M448 384v64h64v128h-64v64h-192v-256h192zM0 0v64h64v64h64v512h-64v64h-64v64h512v-64h64v-64h64v-256h-64v-64h-64v-64h-256v-256h-256z" />
    <glyph glyph-name="Q" unicode="Q" 
d="M128 -192v64h64v-64h-64zM448 128v64h64v384h-64v64h-256v-64h-64v-384h64v-64h256zM448 -256v64h-64v64h-192v64h64v64h-128v64h-64v64h-64v512h64v64h64v64h384v-64h64v-64h64v-512h-64v-64h-64v-64h-128v-64h64v-64h128v64h64v-128h-64v-64h-128z" />
    <glyph glyph-name="R" unicode="R" 
d="M448 384v64h64v128h-64v64h-192v-256h192zM0 0v64h64v64h64v512h-64v64h-64v64h512v-64h64v-64h64v-256h-64v-64h-64v-64h64v-64h64v-192h-128v192h-64v64h-192v-256h-256z" />
    <glyph glyph-name="S" unicode="S" 
d="M576 576v64h64v-64h-64zM128 0v64h-64v64h-64v128h64v-64h64v-64h320v64h64v128h-64v64h-320v64h-64v64h-64v128h64v64h64v64h384v-64h64v-64h-448v-128h384v-64h64v-64h64v-256h-64v-64h-64v-64h-384z" />
    <glyph glyph-name="T" unicode="T" 
d="M128 0v64h64v64h64v512h-192v-64h-64v192h640v-64h-64v-64h-192v-640h-256z" />
    <glyph glyph-name="U" unicode="U" 
d="M256 0v64h-64v64h-64v512h-64v64h-64v64h256v-576h64v-64h192v640h128v-768h-384z" />
    <glyph glyph-name="V" unicode="V" 
d="M384 0v64h-64v64h-64v64h-64v64h-64v384h-64v64h-64v64h256v-512h64v-64h64v-64h64v64h64v576h128v-640h-64v-64h-64v-64h-128z" />
    <glyph glyph-name="W" unicode="W" horiz-adv-x="896" 
d="M0 0v64h64v64h64v512h-64v64h-64v64h256v-512h64v64h64v64h128v-64h64v-64h64v512h192v-64h-64v-640h64v-64h-128v64h-64v64h-64v64h-64v64h-128v-64h-64v-64h-64v-64h-64v-64h-192z" />
    <glyph glyph-name="X" unicode="X" horiz-adv-x="832" 
d="M0 0v128h64v64h64v64h64v64h64v128h-64v64h-64v64h-64v64h-64v128h128v-128h64v-64h64v-64h64v-64h64v64h64v64h64v64h64v128h128v-128h-64v-64h-64v-64h-64v-64h-64v-128h64v-64h64v-64h64v-64h64v-128h-128v128h-64v64h-64v64h-64v64h-64v-64h-64v-64h-64v-64h-64v-128
h-128z" />
    <glyph glyph-name="Y" unicode="Y" 
d="M192 128v64h64v-64h-64zM256 -128v64h-64v64h-64v128h64v-64h64v-64h192v64h64v192h-256v64h-64v64h-64v256h-64v64h-64v64h256v-320h64v-64h192v384h128v-768h-64v-64h-64v-64h-256z" />
    <glyph glyph-name="Z" unicode="Z" 
d="M0 0v192h64v64h64v64h64v64h64v64h64v64h64v64h64v64h-384v-64h-64v192h640v-128h-64v-64h-64v-64h-64v-64h-64v-64h-64v-64h-64v-64h-64v-64h-64v-64h448v64h64v-192h-640z" />
    <glyph glyph-name="bracketleft" unicode="[" horiz-adv-x="512" 
d="M0 -128v896h384v-64h-128v-768h128v-64h-384z" />
    <glyph glyph-name="backslash" unicode="\" horiz-adv-x="1024" 
d="M768 -128v64h-64v64h-64v64h-64v64h-64v64h-64v64h-64v64h-64v64h-64v64h-64v64h-64v64h-64v64h-64v64h64v64h64v-64h64v-64h64v-64h64v-64h64v-64h64v-64h64v-64h64v-64h64v-64h64v-64h64v-64h64v-64h64v-64h-64v-64h-64z" />
    <glyph glyph-name="bracketright" unicode="]" horiz-adv-x="512" 
d="M0 -128v64h128v768h-128v64h384v-896h-384z" />
    <glyph glyph-name="asciicircum" unicode="^" horiz-adv-x="704" 
d="M0 384v128h64v64h64v64h64v64h64v64h64v-64h64v-64h64v-64h64v-64h64v-128h-64v64h-64v64h-64v64h-64v64h-64v-64h-64v-64h-64v-64h-64v-64h-64z" />
    <glyph glyph-name="underscore" unicode="_" 
d="M0 -256v128h640v-128h-640z" />
    <glyph glyph-name="grave" unicode="`" horiz-adv-x="320" 
d="M128 512v64h-64v64h-64v128h64v-64h64v-64h64v-128h-64z" />
    <glyph glyph-name="a" unicode="a" 
d="M448 128v64h64v256h-64v64h-256v-64h-64v-256h64v-64h256zM128 0v64h-64v64h-64v384h64v64h64v64h576v-64h-64v-576h-512z" />
    <glyph glyph-name="b" unicode="b" horiz-adv-x="896" 
d="M576 128v64h64v256h-64v64h-256v-64h-64v-256h64v-64h256zM0 0v64h64v64h64v512h-64v64h-64v64h256v-128h384v-64h64v-64h64v-384h-64v-64h-64v-64h-640z" />
    <glyph glyph-name="c" unicode="c" 
d="M128 0v64h-64v64h-64v384h64v64h64v64h384v-64h64v-64h64v-128h-128v64h-64v64h-256v-64h-64v-256h64v-64h256v64h64v64h128v-128h-64v-64h-64v-64h-384z" />
    <glyph glyph-name="d" unicode="d" horiz-adv-x="896" 
d="M448 128v64h64v256h-64v64h-256v-64h-64v-256h64v-64h256zM128 0v64h-64v64h-64v384h64v64h64v64h384v128h256v-64h-64v-64h-64v-512h64v-64h64v-64h-640z" />
    <glyph glyph-name="e" unicode="e" 
d="M512 320v128h-64v64h-256v-64h-64v-128h384zM128 0v64h-64v64h-64v384h64v64h64v64h384v-64h64v-64h64v-256h-512v-64h64v-64h384v-64h-64v-64h-384z" />
    <glyph glyph-name="f" unicode="f" horiz-adv-x="640" 
d="M-64 -256v64h-64v64h192v64h64v320h-128v64h128v320h64v64h64v64h192v-64h64v-64h-192v-64h-64v-256h128v-64h-128v-384h-64v-64h-64v-64h-192z" />
    <glyph glyph-name="g" unicode="g" horiz-adv-x="896" 
d="M448 128v64h64v256h-64v64h-256v-64h-64v-256h64v-64h256zM128 -256v64h-64v64h-64v128h64v-64h64v-64h320v64h64v64h-384v64h-64v64h-64v384h64v64h64v64h640v-64h-64v-64h-64v-640h-64v-64h-64v-64h-384z" />
    <glyph glyph-name="h" unicode="h" 
d="M0 0v64h64v64h64v512h-64v64h-64v64h256v-128h256v-64h64v-64h64v-448h64v-64h-192v448h-64v64h-192v-512h-256z" />
    <glyph glyph-name="i" unicode="i" horiz-adv-x="512" 
d="M0 0v64h64v64h64v256h-64v64h-64v64h256v-384h64v-64h64v-64h-384zM128 640v128h128v-128h-128z" />
    <glyph glyph-name="j" unicode="j" horiz-adv-x="640" 
d="M128 -256v64h-64v64h-64v192h64v64h64v64h128v-64h-64v-64h-64v-128h64v-64h128v64h64v448h-128v64h64v64h192v-640h-64v-64h-64v-64h-256zM384 640v128h128v-128h-128z" />
    <glyph glyph-name="k" unicode="k" horiz-adv-x="832" 
d="M0 0v64h64v64h64v512h-64v64h-64v64h256v-384h192v64h64v192h192v-64h-64v-128h-64v-64h-64v-128h64v-64h64v-128h64v-64h-192v192h-64v64h-192v-256h-256z" />
    <glyph glyph-name="l" unicode="l" horiz-adv-x="512" 
d="M128 0v640h-64v64h-64v64h256v-640h64v-64h64v-64h-256z" />
    <glyph glyph-name="m" unicode="m" horiz-adv-x="896" 
d="M0 0v64h64v64h64v384h-64v64h-64v64h128v-64h128v64h128v-64h128v64h128v-64h64v-64h64v-448h64v-64h-192v512h-128v-512h-128v512h-128v-512h-256z" />
    <glyph glyph-name="n" unicode="n" 
d="M0 0v64h64v64h64v384h-64v64h-64v64h512v-64h64v-64h64v-448h64v-64h-192v448h-64v64h-192v-512h-256z" />
    <glyph glyph-name="o" unicode="o" 
d="M448 128v64h64v256h-64v64h-256v-64h-64v-256h64v-64h256zM128 0v64h-64v64h-64v384h64v64h64v64h384v-64h64v-64h64v-384h-64v-64h-64v-64h-384z" />
    <glyph glyph-name="p" unicode="p" horiz-adv-x="896" 
d="M576 128v64h64v256h-64v64h-256v-64h-64v-256h64v-64h256zM0 -256v64h64v64h64v640h-64v64h-64v64h640v-64h64v-64h64v-384h-64v-64h-64v-64h-384v-256h-256z" />
    <glyph glyph-name="q" unicode="q" horiz-adv-x="896" 
d="M448 128v64h64v256h-64v64h-256v-64h-64v-256h64v-64h256zM512 -256v256h-384v64h-64v64h-64v384h64v64h64v64h640v-64h-64v-64h-64v-640h64v-64h64v-64h-256z" />
    <glyph glyph-name="r" unicode="r" horiz-adv-x="640" 
d="M0 0v640h128v-64h64v64h320v-64h-64v-64h-320v-512h-128z" />
    <glyph glyph-name="s" unicode="s" 
d="M0 128v64h64v-64h-64zM576 448v64h64v-64h-64zM128 0v64h-64v64h448v128h-384v64h-64v64h-64v128h64v64h64v64h384v-64h64v-64h-448v-128h384v-64h64v-64h64v-128h-64v-64h-64v-64h-384z" />
    <glyph glyph-name="t" unicode="t" horiz-adv-x="512" 
d="M320 0v64h64v-64h-64zM192 -64v64h-64v512h-128v64h128v192h128v-192h128v-64h-128v-512h64v-64h-128z" />
    <glyph glyph-name="u" unicode="u" 
d="M256 0v64h-64v64h-64v384h-64v64h-64v64h256v-448h64v-64h192v512h128v-640h-384z" />
    <glyph glyph-name="v" unicode="v" 
d="M384 0v64h-64v64h-64v64h-64v64h-64v256h-64v64h-64v64h256v-384h64v-64h64v-64h64v64h64v448h128v-512h-64v-64h-64v-64h-128z" />
    <glyph glyph-name="w" unicode="w" horiz-adv-x="896" 
d="M0 0v64h64v64h64v384h-64v64h-64v64h256v-384h64v64h64v64h128v-64h64v-64h64v384h192v-64h-64v-512h64v-64h-128v64h-64v64h-64v64h-64v64h-128v-64h-64v-64h-64v-64h-64v-64h-192z" />
    <glyph glyph-name="x" unicode="x" horiz-adv-x="832" 
d="M0 0v64h64v64h64v64h64v64h64v128h-64v64h-64v64h-64v64h-64v64h128v-64h64v-64h64v-64h64v-64h64v64h64v64h64v64h64v64h128v-64h-64v-64h-64v-64h-64v-64h-64v-128h64v-64h64v-64h64v-64h64v-64h-128v64h-64v64h-64v64h-64v64h-64v-64h-64v-64h-64v-64h-64v-64h-128z
" />
    <glyph glyph-name="y" unicode="y" 
d="M256 -256v64h-64v64h-64v128h64v-64h64v-64h192v64h64v64h-256v64h-64v64h-64v384h-64v64h-64v64h256v-448h64v-64h192v512h128v-768h-64v-64h-64v-64h-256z" />
    <glyph glyph-name="z" unicode="z" 
d="M0 0v128h64v64h64v64h64v64h64v64h64v64h64v64h-320v-64h-64v192h640v-64h-64v-64h-64v-64h-64v-64h-64v-64h-64v-64h-64v-64h-64v-64h384v64h64v-192h-640z" />
    <glyph glyph-name="braceleft" unicode="{" horiz-adv-x="640" 
d="M256 -128v64h-64v64h-64v256h-128v128h128v256h64v64h64v64h256v-128h-128v-64h-64v-192h-64v-128h64v-192h64v-64h128v-128h-256z" />
    <glyph glyph-name="bar" unicode="|" horiz-adv-x="256" 
d="M0 -128v832h64v64h64v-832h-64v-64h-64z" />
    <glyph glyph-name="braceright" unicode="}" horiz-adv-x="640" 
d="M0 -128v128h128v64h64v192h64v128h-64v192h-64v64h-128v128h256v-64h64v-64h64v-256h128v-128h-128v-256h-64v-64h-64v-64h-256z" />
    <glyph glyph-name="asciitilde" unicode="~" horiz-adv-x="1088" 
d="M64 192v64h64v-64h-64zM832 384v64h64v-64h-64zM576 128v64h-64v64h-64v64h-128v64h-192v-64h-64v-64h-64v128h64v64h64v64h256v-64h64v-64h64v-64h128v-64h192v64h64v64h64v-128h-64v-64h-64v-64h-256z" />
    <glyph glyph-name="copyright" unicode="&#xa9;" horiz-adv-x="1152" 
d="M384 0v64h-64v64h-64v256h64v64h64v64h256v-64h64v-128h-64v64h-64v64h-128v-64h-64v-256h64v-64h128v64h64v64h64v-128h-64v-64h-256zM704 -128v64h128v128h64v384h-64v128h-128v64h-384v-64h-128v-128h-64v-384h64v-128h128v-64h384zM320 -256v64h-128v64h-64v64h-64
v128h-64v384h64v128h64v64h64v64h128v64h384v-64h128v-64h64v-64h64v-128h64v-384h-64v-128h-64v-64h-64v-64h-128v-64h-384z" />
    <glyph glyph-name="guillemotleft" unicode="&#xab;" horiz-adv-x="896" 
d="M320 -64v64h-64v64h-64v64h-64v64h-64v64h-64v64h64v64h64v64h64v64h64v64h64v64h256v-64h-64v-64h-64v-64h-64v-64h-64v-64h-64v-64h64v-64h64v-64h64v-64h64v-64h64v-64h-256zM640 -64v64h-64v64h-64v64h-64v64h-64v64h-64v64h64v64h64v64h64v64h64v64h64v64h128v-64
h-64v-64h-64v-64h-64v-64h-64v-64h-64v-64h64v-64h64v-64h64v-64h64v-64h64v-64h-128z" />
    <glyph glyph-name="registered" unicode="&#xae;" horiz-adv-x="1152" 
d="M576 256v192h-128v-192h128zM256 0v64h64v384h-64v64h384v-64h64v-192h-64v-64h64v-192h-128v192h-128v-192h-192zM704 -128v64h128v128h64v384h-64v128h-128v64h-384v-64h-128v-128h-64v-384h64v-128h128v-64h384zM320 -256v64h-128v64h-64v64h-64v128h-64v384h64v128
h64v64h64v64h128v64h384v-64h128v-64h64v-64h64v-128h64v-384h-64v-128h-64v-64h-64v-64h-128v-64h-384z" />
    <glyph glyph-name="guillemotright" unicode="&#xbb;" horiz-adv-x="896" 
d="M0 -64v64h64v64h64v64h64v64h64v64h64v64h-64v64h-64v64h-64v64h-64v64h-64v64h128v-64h64v-64h64v-64h64v-64h64v-64h64v-64h-64v-64h-64v-64h-64v-64h-64v-64h-64v-64h-128zM192 -64v64h64v64h64v64h64v64h64v64h64v64h-64v64h-64v64h-64v64h-64v64h-64v64h256v-64h64
v-64h64v-64h64v-64h64v-64h64v-64h-64v-64h-64v-64h-64v-64h-64v-64h-64v-64h-256z" />
    <glyph glyph-name="quoteleft" unicode="&#x2018;" horiz-adv-x="256" 
d="M0 512v192h64v-64h64v-128h-128zM64 704v64h64v-64h-64z" />
    <glyph glyph-name="quoteright" unicode="&#x2019;" horiz-adv-x="256" 
d="M0 512v64h64v-64h-64zM64 576v64h-64v128h128v-192h-64z" />
    <glyph glyph-name="quotedblleft" unicode="&#x201c;" horiz-adv-x="448" 
d="M0 512v192h64v-64h64v-128h-128zM192 512v192h64v-64h64v-128h-128zM64 704v64h64v-64h-64zM256 704v64h64v-64h-64z" />
    <glyph glyph-name="quotedblright" unicode="&#x201d;" horiz-adv-x="448" 
d="M0 512v64h64v-64h-64zM192 512v64h64v-64h-64zM64 576v64h-64v128h128v-192h-64zM256 576v64h-64v128h128v-192h-64z" />
    <glyph glyph-name="trademark" unicode="&#x2122;" horiz-adv-x="832" 
d="M512 576v64h64v-64h-64zM128 448v256h-128v64h320v-64h-128v-256h-64zM384 448v320h64v-64h64v-64h-64v-192h-64zM640 448v192h-64v64h64v64h64v-320h-64z" />
    <glyph glyph-name="glyph1" horiz-adv-x="0" 
 />
    <glyph glyph-name="glyph2" horiz-adv-x="320" 
 />
  </font>
</defs>
</svg>
